Coordinates
version=1
nRows=22
nColumns=24
inDegrees=yes

Units are S.I. units (second, meters, Newtons, ...)
Angles are in degrees.

endheader
time	pelvis_tilt	pelvis_list	pelvis_rotation	pelvis_tx	pelvis_ty	pelvis_tz	hip_flexion_r	hip_adduction_r	hip_rotation_r	knee_angle_r	ankle_angle_r	subtalar_angle_r	mtp_angle_r	hip_flexion_l	hip_adduction_l	hip_rotation_l	knee_angle_l	ankle_angle_l	subtalar_angle_l	mtp_angle_l	lumbar_extension	lumbar_bending	lumbar_rotation
      0.92050000	     -5.02396019	      3.77003958	      2.57919622	     -0.14233814	      1.05188799	      0.30050593	     -6.71707189	     -2.04038415	     -3.71720089	    -10.29773234	     20.58178439	     -2.45860534	     -1.48141523	     31.51092361	      2.43664523	     -0.40568152	    -18.87171820	      8.73284879	      5.69320465	      1.98889806	     -6.56045013	     -1.42552621	      1.60817614
      0.92466667	     -5.03695875	      3.70571242	      2.52239379	     -0.13642497	      1.05043996	      0.30003883	     -6.93705097	     -2.00609486	     -3.78392161	    -10.54930937	     20.84810508	     -2.25138618	     -1.63603416	     31.52737851	      2.42440913	     -0.28356369	    -18.48594658	      8.77575871	      5.58463961	      1.92613077	     -6.49151487	     -1.37730212	      1.62771672
      0.92883333	     -5.04390696	      3.61800526	      2.45563280	     -0.13047588	      1.04901946	      0.29961095	     -7.16948008	     -1.93754218	     -3.73708573	    -10.78296439	     21.05028374	     -2.25334466	     -1.65909782	     31.55485408	      2.37627735	     -0.23563990	    -18.22875706	      8.86561712	      5.56973927	      1.91484334	     -6.41993026	     -1.29268848	      1.64052223
      0.93300000	     -5.04047271	      3.56063818	      2.38355641	     -0.12449429	      1.04762582	      0.29913237	     -7.36626478	     -1.92336524	     -3.82838400	    -11.13073153	     21.32985183	     -1.98222212	     -1.76549259	     31.55365343	      2.37326623	     -0.14084119	    -18.03275607	      8.89393313	      5.38257560	      1.85558363	     -6.34410964	     -1.23991322	      1.69910357
      0.93716667	     -5.02350069	      3.49519346	      2.30526403	     -0.11847753	      1.04628289	      0.29872100	     -7.59311410	     -1.88595446	     -3.77366725	    -11.44408703	     21.51188229	     -1.96187286	     -1.78624609	     31.54470808	      2.34993304	     -0.09648722	    -17.93830090	      8.95976452	      5.34617181	      1.84130930	     -6.29183702	     -1.18784784	      1.70409612
      0.94133333	     -4.97019552	      3.45329206	      2.22528634	     -0.11242011	      1.04502092	      0.29826705	     -7.82412789	     -1.89319649	     -3.87250442	    -11.84109053	     21.75678248	     -1.66022450	     -1.84948509	     31.47779914	      2.36018900	     -0.02969182	    -17.89313136	      8.97495698	      5.20247004	      1.79017495	     -6.27132843	     -1.15918298	      1.75182342
      0.94550000	     -4.96027183	      3.39343944	      2.13772243	     -0.10634925	      1.04372256	      0.29785303	     -8.00033528	     -1.87318994	     -3.82207615	    -12.25066317	     21.87866201	     -1.64047713	     -1.85908035	     31.47094866	      2.34712523	      0.01917211	    -17.96018677	      9.00160817	      5.15415884	      1.77875897	     -6.21505103	     -1.11916181	      1.75547510
      0.94966667	     -4.95007628	      3.34255112	      2.05503467	     -0.10022815	      1.04244322	      0.29739052	     -8.14164449	     -1.88335839	     -3.91594941	    -12.74705759	     22.10054085	     -1.28201087	     -1.88460275	     31.45123569	      2.35575021	      0.11334858	    -18.08222900	      8.98805517	      5.03103107	      1.73357772	     -6.12498251	     -1.09820610	      1.80023840
      0.95383333	     -4.89262619	      3.31580319	      1.96382520	     -0.09409464	      1.04130582	      0.29696495	     -8.32607367	     -1.91583121	     -3.95082783	    -13.26059924	     22.24055469	     -1.06377761	     -1.89008059	     31.37748950	      2.38226595	      0.18151569	    -18.27664536	      8.94948394	      4.93823612	      1.69389086	     -6.11315847	     -1.10897251	      1.81168690
      0.95800000	     -4.85520031	      3.25510484	      1.87802137	     -0.08795094	      1.04015255	      0.29652361	     -8.47833468	     -1.90977278	     -3.93122493	    -13.79168468	     22.32907374	     -0.94569621	     -1.87741892	     31.34780409	      2.37720520	      0.24670824	    -18.58756447	      8.91222203	      4.86750038	      1.67670071	     -6.05762443	     -1.06287421	      1.82000490
      0.96216667	     -4.80908536	      3.23458621	      1.79066049	     -0.08178162	      1.03908064	      0.29606566	     -8.59459731	     -1.96717283	     -4.02279084	    -14.42893942	     22.42956930	     -0.60162577	     -1.82551319	     31.28717734	      2.41906603	      0.35242647	    -18.92174288	      8.83378424	      4.79217288	      1.64876729	     -6.02901545	     -1.09022380	      1.83150204
      0.96633333	     -4.79138026	      3.18731575	      1.71092949	     -0.07558925	      1.03799813	      0.29558419	     -8.66787824	     -1.99438691	     -4.06177350	    -15.08988825	     22.45519137	     -0.37313126	     -1.75003939	     31.27479668	      2.43781453	      0.45761599	    -19.35238851	      8.75137721	      4.72336850	      1.62812236	     -5.94978049	     -1.07223109	      1.83068216
      0.97050000	     -4.73258493	      3.15822656	      1.62290343	     -0.06940740	      1.03705131	      0.29511678	     -8.75603955	     -2.05021627	     -4.12396578	    -15.80869406	     22.46278023	     -0.08417717	     -1.63623196	     31.21583935	      2.47132565	      0.57333354	    -19.83199212	      8.64915572	      4.65147116	      1.61144274	     -5.92851569	     -1.08261141	      1.82302907
      0.97466667	     -4.69754971	      3.13727323	      1.54498592	     -0.06318169	      1.03612225	      0.29461010	     -8.78847787	     -2.12540770	     -4.22326662	    -16.59711958	     22.42468105	      0.21578326	     -1.44464613	     31.18339333	      2.51939478	      0.69571334	    -20.36609405	      8.53880478	      4.56536764	      1.59619738	     -5.85866339	     -1.10390217	      1.80548180
      0.97883333	     -4.64572278	      3.08570418	      1.46330396	     -0.05700706	      1.03528068	      0.29410104	     -8.81699765	     -2.16649127	     -4.25311141	    -17.41458238	     22.32210629	      0.48868134	     -1.27433153	     31.15290830	      2.53518708	      0.83216791	    -20.97695011	      8.44160016	      4.48624111	      1.58866995	     -5.83793415	     -1.08261352	      1.78946693
      0.98300000	     -4.60403069	      3.07292082	      1.38873905	     -0.05077741	      1.03450236	      0.29355764	     -8.79856962	     -2.26726861	     -4.36616636	    -18.30881534	     22.10537593	      0.74532552	      2.00932321	     31.11723621	      2.59690509	      0.98703951	    -21.59665416	      8.30589653	      4.33005342	      1.50143121	     -5.77637495	     -1.11258069	      1.74463910
      0.98716667	     -4.54675661	      3.02584033	      1.31130622	     -0.04459010	      1.03379735	      0.29301501	     -8.76740859	     -2.33158374	     -4.43213500	    -19.25485688	     21.90350438	      1.05653478	      2.06106668	     31.09485413	      2.61364131	      1.10487798	    -22.30670989	      8.26535208	      4.29497505	      1.50276723	     -5.76024377	     -1.09980125	      1.72655307
      0.99133333	     -4.49954569	      2.99359927	      1.23931361	     -0.03838782	      1.03315262	      0.29244408	     -8.68508841	     -2.42596958	     -4.54005106	    -20.28349826	     21.65534559	      1.40960944	      2.16299263	     31.07600336	      2.64953728	      1.23715785	    -23.02860472	      8.20750051	      4.19939245	      1.50206878	     -5.72090466	     -1.10739660	      1.68813429
      0.99550000	     -4.45519405	      2.98059924	      1.17251755	     -0.03218045	      1.03257147	      0.29183175	     -8.55622596	     -2.55723644	     -4.69910285	    -21.40166161	     21.39955843	      1.78270905	      2.37402016	     31.05248910	      2.70740930	      1.36772730	    -23.75484683	      8.15460346	      4.08472306	      1.49696279	     -5.67035566	     -1.12904163	      1.63430478
      0.99966667	     -4.40776705	      2.95447036	      1.10124308	     -0.02598163	      1.03209250	      0.29122994	     -8.40732848	     -2.67710510	     -4.80721071	    -22.53713348	     20.92905802	      2.06717308	      5.98029719	     31.02314969	      2.75100684	      1.51262713	    -24.49777186	      8.12430212	      3.91352297	      1.35379502	     -5.63596947	     -1.14675790	      1.56808926
      1.00383333	     -4.34405176	      2.91687023	      1.03766286	     -0.01980252	      1.03169946	      0.29060591	     -8.24055252	     -2.79021337	     -4.92159778	    -23.74023020	     20.45974931	      2.41538662	      6.03562910	     30.98080404	      2.77807655	      1.62921820	    -25.26266361	      8.17306145	      3.85417874	      1.35260602	     -5.62566029	     -1.14864788	      1.53442546
      1.00800000	     -4.29497178	      2.91177598	      0.97328019	     -0.01362404	      1.03134201	      0.28997131	     -8.00443685	     -2.95925562	     -5.09289835	    -25.05238370	     20.02132318	      2.80953730	      6.24331402	     30.93938249	      2.83496381	      1.71977927	    -26.00927772	      8.19910841	      3.73176923	      1.33705723	     -5.59238958	     -1.19503062	      1.46211509
